<svg width="25" height="25" viewBox="0 0 25 25" fill="none" xmlns="http://www.w3.org/2000/svg">
<path d="M7.04167 5.04166L5.16667 3.17707L3.69792 4.64582L5.5625 6.51041L7.04167 5.04166ZM4.16667 10.9375H1.04167V13.0208H4.16667V10.9375ZM13.5417 0.572906H11.4583V3.64582H13.5417V0.572906V0.572906ZM21.3021 4.64582L19.8333 3.17707L17.9688 5.04166L19.4375 6.51041L21.3021 4.64582ZM17.9583 18.9167L19.8229 20.7917L21.2917 19.3229L19.4167 17.4583L17.9583 18.9167ZM20.8333 10.9375V13.0208H23.9583V10.9375H20.8333ZM12.5 5.72916C9.05208 5.72916 6.25 8.53124 6.25 11.9792C6.25 15.4271 9.05208 18.2292 12.5 18.2292C15.9479 18.2292 18.75 15.4271 18.75 11.9792C18.75 8.53124 15.9479 5.72916 12.5 5.72916ZM11.4583 23.3854H13.5417V20.3125H11.4583V23.3854ZM3.69792 19.3125L5.16667 20.7812L7.03125 18.9062L5.5625 17.4375L3.69792 19.3125Z" fill="white"/>
</svg>
